<?xml version="1.0" standalone="no"?>
<!DOCTYPE svg PUBLIC "-//W3C//DTD SVG 20010904//EN"
 "http://www.w3.org/TR/2001/REC-SVG-20010904/DTD/svg10.dtd">
<svg version="1.0" xmlns="http://www.w3.org/2000/svg"
 width="1024.000000pt" height="1024.000000pt" viewBox="0 0 1024.000000 1024.000000"
 preserveAspectRatio="xMidYMid meet">

<g transform="translate(0.000000,1024.000000) scale(0.100000,-0.100000)"
fill="#000000" stroke="none">
<path d="M4745 9349 c-327 -27 -704 -109 -1027 -223 -509 -181 -939 -423
-1338 -755 -356 -296 -713 -724 -955 -1145 -277 -484 -465 -1083 -520 -1660
-17 -183 -20 -572 -5 -751 35 -416 146 -888 303 -1290 128 -328 329 -691 530
-960 674 -898 1617 -1474 2708 -1654 866 -143 1730 -19 2504 359 540 264 1004
624 1396 1085 486 570 789 1208 938 1975 180 920 46 1857 -388 2720 -241 479
-529 855 -931 1214 -160 142 -198 173 -350 283 -665 480 -1387 745 -2185 803
-161 11 -534 11 -680 -1z m1913 -591 c21 -46 31 -130 47 -408 8 -146 21 -364
30 -485 8 -121 19 -308 25 -415 59 -1091 81 -1224 280 -1650 39 -85 85 -194
101 -243 39 -116 92 -353 123 -557 80 -517 56 -817 -109 -1370 -56 -187 -81
-300 -95 -440 -6 -60 -14 -429 -17 -855 -4 -614 -8 -755 -19 -777 -8 -16 -38
-47 -67 -69 -51 -41 -173 -107 -180 -98 -2 2 -1 36 4 74 4 39 8 224 8 411 l1
342 -27 8 c-16 4 -129 8 -253 9 -242 1 -286 9 -338 58 -38 35 -51 69 -77 200
-22 106 -36 144 -107 292 -180 379 -240 531 -283 724 -37 166 -56 196 -185
281 -36 24 -156 111 -268 193 -112 82 -251 181 -308 220 -90 61 -104 75 -104
99 0 25 5 29 53 42 28 8 68 18 87 21 54 11 170 68 225 111 64 50 96 64 149 64
57 0 100 -29 276 -190 80 -73 186 -168 237 -212 103 -88 141 -132 177 -204 37
-74 134 -484 210 -889 64 -337 63 -335 139 -387 56 -38 378 -208 395 -208 4 0
7 181 7 403 0 475 4 511 97 767 70 192 139 456 162 619 9 62 15 115 14 116 -2
2 -90 -58 -196 -132 -217 -152 -249 -165 -315 -124 -45 27 -69 66 -167 262
-110 219 -412 742 -445 769 -25 21 -115 -34 -315 -193 -122 -97 -513 -363
-597 -406 -98 -49 -273 -66 -388 -36 -163 43 -266 154 -338 365 -64 187 -192
776 -212 975 -3 33 -8 74 -11 92 l-5 31 -192 -139 c-315 -228 -321 -232 -344
-274 -29 -52 -131 -273 -251 -545 l-95 -215 -1 -130 c-1 -112 -4 -137 -24
-180 -28 -61 -45 -80 -101 -117 -138 -88 -278 48 -242 233 18 88 232 831 287
994 89 265 84 259 414 543 118 102 280 250 360 328 80 78 163 151 185 162 77
38 229 60 580 82 94 6 204 18 245 26 77 16 178 57 232 95 17 13 166 92 332
176 168 86 316 168 334 186 41 39 618 844 649 906 20 39 23 60 23 165 1 164
17 359 35 422 21 71 64 116 107 112 24 -2 36 -10 46 -30z m-1866 -997 c86 -23
168 -73 223 -134 78 -86 115 -195 115 -337 0 -294 -189 -500 -458 -500 -141 0
-267 55 -365 160 -83 87 -117 169 -125 292 -9 158 34 288 130 393 56 61 108
96 190 125 71 26 201 26 290 1z m-643 -2899 c37 -37 67 -88 136 -226 54 -110
103 -196 126 -221 48 -52 51 -85 10 -126 -26 -26 -36 -29 -91 -29 -165 0 -243
121 -304 470 -21 123 -7 180 45 180 22 0 42 -12 78 -48z"/>
<path d="M6424 7453 c-26 -48 -94 -180 -150 -293 -73 -146 -114 -216 -141
-241 -21 -20 -164 -121 -318 -224 -409 -275 -494 -334 -510 -358 -20 -32 -41
-119 -76 -312 -16 -93 -36 -190 -44 -215 -33 -102 -113 -506 -102 -516 3 -3
87 50 188 117 178 117 447 262 604 324 59 23 80 27 140 23 131 -9 211 -67 284
-207 56 -109 95 -213 221 -596 155 -472 136 -429 191 -433 28 -2 88 9 160 29
63 17 131 36 152 41 l37 10 0 77 c0 143 -34 463 -75 712 -33 197 -79 351 -179
597 -189 469 -244 710 -306 1336 -11 115 -22 211 -24 213 -2 2 -25 -36 -52
-84z"/>
</g>
</svg>
